<svg width="1200" height="220" xmlns="http://www.w3.org/2000/svg" viewBox="0 0 1200 220">
  <defs>
    <linearGradient id="g" x1="0%" y1="0%" x2="100%" y2="0%">
      <stop offset="0%" stop-color="#2563EB"/>
      <stop offset="33%" stop-color="#7C3AED"/>
      <stop offset="66%" stop-color="#A855F7"/>
      <stop offset="100%" stop-color="#10B981"/>
    </linearGradient>
    <linearGradient id="g2" x1="0%" y1="0%" x2="100%" y2="0%">
      <stop offset="0%" stop-color="#3B82F6"/>
      <stop offset="50%" stop-color="#8B5CF6"/>
      <stop offset="100%" stop-color="#34D399"/>
    </linearGradient>
  </defs>

  <!-- back wave -->
  <path fill="url(#g)" opacity="0.55" d="M0 0 H1200 V155 C1100 195 1000 130 900 160 C800 190 700 135 600 165 C500 195 400 140 300 170 C200 200 100 145 0 175 Z"/>
  <!-- mid wave -->
  <path fill="url(#g2)" opacity="0.7" d="M0 0 H1200 V145 C1110 185 1010 120 910 155 C810 190 710 125 610 160 C510 195 410 130 310 165 C210 200 110 135 0 165 Z"/>
  <!-- front water wave -->
  <path fill="url(#g)" d="M0 0 H1200 V135 C1120 175 1020 110 920 145 C820 180 720 115 620 150 C520 185 420 120 320 155 C220 190 120 125 0 155 Z"/>

  <text text-anchor="middle" x="600" y="82" fill="#ffffff" font-size="56" font-weight="700" font-family="-apple-system,BlinkMacSystemFont,Segoe UI,Helvetica,Arial,sans-serif">Kashika Baweja</text>
  <text text-anchor="middle" x="600" y="120" fill="#F8FAFC" font-size="17" font-weight="500" font-family="-apple-system,BlinkMacSystemFont,Segoe UI,Helvetica,Arial,sans-serif">Software Engineer | AI &amp; Full-Stack Developer</text>
</svg>